<svg width="609" height="787" viewBox="0 0 609 787" fill="none" xmlns="http://www.w3.org/2000/svg">
<path d="M0.666667 6C0.666667 8.94552 3.05448 11.3333 6 11.3333C8.94552 11.3333 11.3333 8.94552 11.3333 6C11.3333 3.05448 8.94552 0.666667 6 0.666667C3.05448 0.666667 0.666667 3.05448 0.666667 6ZM272.5 232.5L273.187 233.226L273.997 232.46L273.148 231.738L272.5 232.5ZM94.5 401L93.8125 400.274L92.632 401.391L94.1618 401.941L94.5 401ZM606.5 585L607.185 585.729L608.374 584.611L606.838 584.059L606.5 585ZM392.667 781C392.667 783.945 395.054 786.333 398 786.333C400.946 786.333 403.333 783.945 403.333 781C403.333 778.055 400.946 775.667 398 775.667C395.054 775.667 392.667 778.055 392.667 781ZM5.35239 6.76197L271.852 233.262L273.148 231.738L6.64761 5.23803L5.35239 6.76197ZM271.813 231.774L93.8125 400.274L95.1875 401.726L273.187 233.226L271.813 231.774ZM94.1618 401.941L606.162 585.941L606.838 584.059L94.8382 400.059L94.1618 401.941ZM605.815 584.271L397.315 780.271L398.685 781.729L607.185 585.729L605.815 584.271Z" fill="#599AC8"/>
</svg>
