<svg width="527" height="712" viewBox="0 0 527 712" fill="none" xmlns="http://www.w3.org/2000/svg">
<path d="M333.236 706C333.236 703.054 335.624 700.667 338.57 700.667C341.515 700.667 343.903 703.054 343.903 706C343.903 708.946 341.515 711.333 338.57 711.333C335.624 711.333 333.236 708.946 333.236 706ZM215.394 479.333L214.516 479.811L213.964 478.795L215.049 478.395L215.394 479.333ZM523 366L523.279 365.04L526.195 365.888L523.346 366.938L523 366ZM3 214.667L2.72057 215.627L0.0560073 214.851L2.60275 213.749L3 214.667ZM479.715 6C479.715 3.05448 482.103 0.666667 485.049 0.666667C487.994 0.666667 490.382 3.05448 490.382 6C490.382 8.94552 487.994 11.3333 485.049 11.3333C482.103 11.3333 479.715 8.94552 479.715 6ZM337.691 706.477L214.516 479.811L216.273 478.856L339.448 705.523L337.691 706.477ZM215.049 478.395L522.654 365.062L523.346 366.938L215.74 480.272L215.049 478.395ZM522.721 366.96L2.72057 215.627L3.27943 213.706L523.279 365.04L522.721 366.96ZM2.60275 213.749L484.651 5.08229L485.446 6.91771L3.39725 215.584L2.60275 213.749Z" fill="#599AC8"/>
</svg>
