<svg width="170" height="170" viewBox="0 0 170 170" fill="none" xmlns="http://www.w3.org/2000/svg">
<circle cx="3.90186" cy="3.90186" r="3.90186" transform="matrix(-1 0 0 1 170 0)" fill="#A9D2EE"/>
<circle cx="3.90186" cy="3.90186" r="3.90186" transform="matrix(-1 0 0 1 115.935 0)" fill="#A9D2EE"/>
<circle cx="3.90186" cy="3.90186" r="3.90186" transform="matrix(-1 0 0 1 61.8691 0)" fill="#A9D2EE"/>
<circle cx="3.90186" cy="3.90186" r="3.90186" transform="matrix(-1 0 0 1 7.80371 0)" fill="#A9D2EE"/>
<circle cx="3.90186" cy="3.90186" r="3.90186" transform="matrix(-1 0 0 1 170 54.0654)" fill="#A9D2EE"/>
<circle cx="3.90186" cy="3.90186" r="3.90186" transform="matrix(-1 0 0 1 115.935 54.0654)" fill="#A9D2EE"/>
<circle cx="3.90186" cy="3.90186" r="3.90186" transform="matrix(-1 0 0 1 61.8691 54.0654)" fill="#A9D2EE"/>
<circle cx="3.90186" cy="3.90186" r="3.90186" transform="matrix(-1 0 0 1 7.80371 54.0654)" fill="#A9D2EE"/>
<circle cx="3.90186" cy="3.90186" r="3.90186" transform="matrix(-1 0 0 1 170 108.131)" fill="#A9D2EE"/>
<circle cx="3.90186" cy="3.90186" r="3.90186" transform="matrix(-1 0 0 1 115.935 108.131)" fill="#A9D2EE"/>
<circle cx="3.90186" cy="3.90186" r="3.90186" transform="matrix(-1 0 0 1 170 162.196)" fill="#A9D2EE"/>
<circle cx="3.90186" cy="3.90186" r="3.90186" transform="matrix(-1 0 0 1 115.935 162.196)" fill="#A9D2EE"/>
</svg>
